
<svg xmlns="http://www.w3.org/2000/svg" width="163" height="27" viewBox="0 0 163 27"><rect width="92" height="26" x="71" y=".446" fill="#FF8E14" rx="13"/><path fill="#fff" d="M95.508 17.446V7.426h3.452c.78 0 1.374.047 1.784.143.574.13 1.064.37 1.47.71.53.44.924 1.01 1.186 1.71.262.69.393 1.49.393 2.38 0 .76-.09 1.43-.267 2.02-.178.59-.406 1.07-.684 1.46s-.582.68-.913.91c-.33.22-.73.39-1.2.5-.47.11-1.01.17-1.61.17H95.5zm1.326-1.183h2.14c.66 0 1.18-.062 1.555-.185s.67-.296.89-.52c.31-.314.56-.737.73-1.268.17-.53.26-1.175.26-1.93 0-1.05-.17-1.855-.52-2.418-.347-.563-.765-.94-1.257-1.13-.356-.138-.928-.206-1.717-.206h-2.1v7.656zm8.17-2.447c0-1.344.373-2.34 1.12-2.987.624-.54 1.385-.81 2.283-.81.998 0 1.814.32 2.447.98.633.65.95 1.56.95 2.71 0 .93-.14 1.67-.42 2.2-.28.53-.688.95-1.224 1.25-.535.29-1.12.44-1.753.44-1.016 0-1.838-.33-2.464-.98-.627-.65-.94-1.59-.94-2.82zm1.264 0c0 .93.203 1.626.608 2.088.406.463.916.694 1.53.694.612 0 1.12-.232 1.525-.697.41-.46.61-1.17.61-2.12 0-.9-.2-1.58-.61-2.04-.41-.46-.91-.69-1.52-.69s-1.12.23-1.53.69c-.4.46-.61 1.16-.61 2.09zm6.98 3.63v-7.26h1.106v1.032c.533-.798 1.303-1.196 2.31-1.196.44 0 .84.08 1.208.236.367.157.64.363.824.62.182.254.31.557.383.908.04.228.06.627.06 1.196v4.464h-1.23V13.03c0-.5-.05-.876-.15-1.125-.1-.248-.27-.447-.51-.595-.25-.148-.53-.222-.86-.222-.53 0-.98.166-1.36.5-.38.332-.57.963-.57 1.893v3.97h-1.23zm12.522-.896c-.456.387-.894.66-1.316.82-.422.16-.874.24-1.357.24-.798 0-1.41-.196-1.84-.585-.427-.39-.642-.888-.642-1.494 0-.35.08-.68.243-.97.162-.29.374-.53.636-.71.262-.18.557-.31.885-.4.24-.06.6-.12 1.09-.18.99-.11 1.72-.26 2.19-.42v-.32c0-.5-.12-.85-.35-1.06-.32-.28-.78-.41-1.4-.41-.58 0-1.01.1-1.28.306-.28.203-.48.56-.61 1.077l-1.21-.166c.11-.515.29-.93.54-1.25.25-.315.61-.56 1.083-.73.474-.17 1.023-.255 1.647-.255.62 0 1.123.074 1.51.22.388.146.673.33.855.55.18.22.31.5.382.837.04.21.06.59.06 1.137v1.64c0 1.146.024 1.87.08 2.17.05.305.153.596.31.874H126c-.127-.256-.21-.555-.245-.897zm-.103-2.748c-.447.182-1.117.337-2.01.465-.506.073-.864.155-1.073.246-.21.09-.37.224-.485.4-.12.175-.18.37-.18.584 0 .328.12.602.37.82.25.22.61.328 1.09.328.47 0 .89-.104 1.26-.31.37-.208.64-.492.81-.852.13-.278.193-.688.193-1.23v-.45zm5.838 2.543l.178 1.087c-.346.073-.656.11-.93.11-.447 0-.793-.072-1.04-.213-.245-.15-.418-.33-.52-.56-.1-.23-.15-.72-.15-1.46v-4.17h-.9v-.96h.9v-1.8l1.225-.74v2.53h1.237v.95h-1.237v4.244c0 .35.022.577.065.678.043.1.114.18.212.24.098.057.238.087.42.087.137 0 .317-.01.54-.044zm6.173-1.237l1.27.157c-.2.743-.57 1.32-1.113 1.73-.542.41-1.235.614-2.078.614-1.062 0-1.904-.33-2.526-.99-.62-.66-.93-1.57-.93-2.75 0-1.22.32-2.17.95-2.85.63-.68 1.45-1.01 2.45-1.01.97 0 1.77.33 2.38.99s.93 1.59.93 2.79l-.003.32h-5.414c.046.794.27 1.404.677 1.83.405.422.91.634 1.517.634.45 0 .838-.118 1.157-.355.32-.238.57-.616.76-1.136zm-4.04-1.99h4.054c-.055-.61-.21-1.068-.465-1.373-.392-.474-.9-.71-1.524-.71-.565 0-1.04.188-1.425.566-.385.38-.598.89-.64 1.52z"/><path fill="#9B9B9B" d="M46.235 9.384c-1.438 0-2.576.382-3.446.556l-.27 2.186c.43-.21 1.8-.59 2.94-.626 1.14-.034 1.8.21 1.57 1.18-3.38 0-5.66.694-6.13 2.88-.67 3.75 3.44 3.645 5.08 2.014l-.2.902h3.01l1.303-5.97c.534-2.532-1.774-3.156-3.88-3.122zm.2 6.108c-.167.798-.802 1.145-1.572 1.18-.67.035-1.27-.556-.837-1.25.335-.59 1.272-.728 1.84-.728h.737l-.17.798zm6.256-8.467L50.2 18.477h3.058L55.78 7.025h-3.09zm-14.05.035h-5.6l-2.48 11.417h3.25l.84-3.783h2.32c2.28 0 4.16-1.388 4.66-3.748.57-2.672-1.37-3.887-2.98-3.887zm-.1 3.887c-.2.867-1.07 1.56-1.91 1.56h-1.51l.67-3.122h1.61c.84 0 1.34.694 1.14 1.562zM16.92 9.384c-1.42 0-2.545.382-3.372.556l-.262 2.186c.398-.21 1.75-.59 2.876-.626 1.123-.034 1.783.21 1.584 1.18-3.336 0-5.583.694-6.046 2.88-.66 3.75 3.404 3.645 4.99 2.014l-.197.9h3.01l1.29-5.968c.527-2.532-1.786-3.155-3.867-3.12zm.23 6.108c-.165.798-.826 1.145-1.585 1.18-.66.035-1.223-.556-.793-1.25.33-.59 1.254-.728 1.783-.728h.76c-.067.277-.132.52-.165.798zm4.94-5.942h3.008l.485 5.316 2.943-5.317h3.103l-7.15 12.72h-3.36l2.19-3.74-1.23-8.98zM9.432 7.06H3.818L1.33 18.475h3.294l.807-3.783h2.36c2.26 0 4.14-1.388 4.64-3.748.58-2.672-1.34-3.887-2.99-3.887zm-.1 3.886c-.202.867-1.042 1.56-1.884 1.56H5.902l.706-3.122H8.22c.808 0 1.345.694 1.11 1.562zm47.11-2.44V7.153h-.505V6.97h1.214v.183h-.5v1.35h-.2zm.91 0V6.972h.303l.363 1.084.073.225.09-.24.37-1.06h.27v1.53h-.19V7.23l-.44 1.28H58l-.45-1.307v1.305h-.195z"/></svg>