# Rhino
mtllib face.mtl
g Default object_1
usemtl material1
v 12.47332668304443 0 0
v 11.10293006896973 5.684085845947266 0
v 6.998881340026856 10.32470607757568 0
v 1.338940143585205 12.40125465393066 0
v -4.182455539703369 11.75121116638184 0
v -9.162185668945313 8.463937759399414 0
v -12.1426477432251 2.853069543838501 0
v -12.12123584747315 -2.942706823348999 0
v -9.285481452941895 -8.328488349914551 0
v -4.160190582275391 -11.75911140441895 0
v 1.348745465278626 -12.40019226074219 0
v 6.984743595123291 -10.3342752456665 0
v 10.92747497558594 -6.014497756958008 0
v 12.47332668304443 0 0
v 12.47332668304443 0 1.035853385925293
v 11.10293006896973 5.684085845947266 1.035853385925293
v 6.998881340026856 10.32470607757568 1.035853385925293
v 1.338940143585205 12.40125465393066 1.035853385925293
v -4.182455539703369 11.75121116638184 1.035853385925293
v -9.162185668945313 8.463937759399414 1.035853385925293
v -12.1426477432251 2.853069543838501 1.035853385925293
v -12.12123584747315 -2.942706823348999 1.035853385925293
v -9.285481452941895 -8.328488349914551 1.035853385925293
v -4.160190582275391 -11.75911140441895 1.035853385925293
v 1.348745465278626 -12.40019226074219 1.035853385925293
v 6.984743595123291 -10.3342752456665 1.035853385925293
v 10.92747497558594 -6.014497756958008 1.035853385925293
v 12.47332668304443 0 1.035853385925293
v 12.47332668304443 0 1.035853385925293
v 10.92747497558594 -6.014497756958008 1.035853385925293
v 6.984743595123291 -10.3342752456665 1.035853385925293
v 1.348745465278626 -12.40019226074219 1.035853385925293
v -4.160190582275391 -11.75911140441895 1.035853385925293
v -9.285481452941895 -8.328488349914551 1.035853385925293
v -12.12123584747315 -2.942706823348999 1.035853385925293
v -12.1426477432251 2.853069543838501 1.035853385925293
v -9.162185668945313 8.463937759399414 1.035853385925293
v -4.182455539703369 11.75121116638184 1.035853385925293
v 1.338940143585205 12.40125465393066 1.035853385925293
v 6.998881340026856 10.32470607757568 1.035853385925293
v 11.10293006896973 5.684085845947266 1.035853385925293
v 12.47332668304443 0 0
v 10.92747497558594 -6.014497756958008 0
v 6.984743595123291 -10.3342752456665 0
v 1.348745465278626 -12.40019226074219 0
v -4.160190582275391 -11.75911140441895 0
v -9.285481452941895 -8.328488349914551 0
v -12.12123584747315 -2.942706823348999 0
v -12.1426477432251 2.853069543838501 0
v -9.162185668945313 8.463937759399414 0
v -4.182455539703369 11.75121116638184 0
v 1.338940143585205 12.40125465393066 0
v 6.998881340026856 10.32470607757568 0
v 11.10293006896973 5.684085845947266 0
vt 0.4898304343223572 0
vt 0.4898304343223572 0.07738647609949112
vt 0.4898304343223572 0.1534806489944458
vt 0.4898304343223572 0.2310451716184616
vt 0.4898304343223572 0.3065185248851776
vt 0.4898304343223572 0.3804169297218323
vt 0.4898304343223572 0.460224062204361
vt 0.4898304343223572 0.5395131707191467
vt 0.4898304343223572 0.6159045100212097
vt 0.4898304343223572 0.6923165917396545
vt 0.4898304343223572 0.7676239013671875
vt 0.4898304343223572 0.8448464274406433
vt 0.4898304343223572 0.9165281653404236
vt 0.4898304343223572 0.99853515625
vt 0.5030278563499451 0
vt 0.5030278563499451 0.07738647609949112
vt 0.5030278563499451 0.1534806489944458
vt 0.5030278563499451 0.2310451716184616
vt 0.5030278563499451 0.3065185248851776
vt 0.5030278563499451 0.3804169297218323
vt 0.5030278563499451 0.460224062204361
vt 0.5030278563499451 0.5395131707191467
vt 0.5030278563499451 0.6159045100212097
vt 0.5030278563499451 0.6923165917396545
vt 0.5030278563499451 0.7676239013671875
vt 0.5030278563499451 0.8448464274406433
vt 0.5030278563499451 0.9165281653404236
vt 0.5030278563499451 0.99853515625
vt 0 0.2441827952861786
vt 0.03026220947504044 0.1264406144618988
vt 0.1074467077851296 0.04187492653727531
vt 0.2177792340517044 0.001431711483746767
vt 0.3256243467330933 0.01398176699876785
vt 0.4259590804576874 0.08114100992679596
vt 0.4814729392528534 0.1865752041339874
vt 0.4818920791149139 0.3000356256961823
vt 0.4235453903675079 0.4098762273788452
vt 0.3260602056980133 0.4742291867733002
vt 0.2179711759090424 0.4869546890258789
vt 0.1071699112653732 0.4463033378124237
vt 0.02682745084166527 0.3554567396640778
vt 0.5101695656776428 0.2441827952861786
vt 0.5404317378997803 0.1264406144618988
vt 0.6176162362098694 0.04187492653727531
vt 0.727948784828186 0.001431711483746767
vt 0.8357939124107361 0.01398176699876785
vt 0.9361286163330078 0.08114100992679596
vt 0.9916424751281738 0.1865752041339874
vt 0.9920616149902344 0.3000356256961823
vt 0.9337149262428284 0.4098762273788452
vt 0.8362297415733337 0.4742291867733002
vt 0.7281407117843628 0.4869546890258789
vt 0.6173394322395325 0.4463033378124237
vt 0.5369970202445984 0.3554567396640778
vn 1 -1.785698183440367e-016 0
vn 0.890133798122406 0.4556992650032044 0
vn 0.5611078143119812 0.8277426958084106 0
vn 0.1073442623019218 0.9942219257354736 0
vn -0.3353119492530823 0.9421071410179138 0
vn -0.7345422506332398 0.6785629987716675 0
vn -0.9734890460968018 0.2287336438894272 0
vn -0.9717724919319153 -0.2359199523925781 0
vn -0.7444270253181458 -0.6677038073539734 0
vn -0.3335269093513489 -0.9427405595779419 0
vn 0.1081303656101227 -0.9941367506980896 0
vn 0.5599743723869324 -0.8285099267959595 0
vn 0.8760673999786377 -0.4821887314319611 0
vn 1 -1.785698183440367e-016 0
vn 1 2.97616355083468e-016 0
vn 0.890133798122406 0.4556992650032044 0
vn 0.5611078143119812 0.8277426958084106 0
vn 0.1073442623019218 0.9942219257354736 0
vn -0.3353119492530823 0.9421071410179138 0
vn -0.7345422506332398 0.6785629987716675 0
vn -0.9734890460968018 0.2287336438894272 0
vn -0.9717724919319153 -0.2359199523925781 0
vn -0.7444270253181458 -0.6677038073539734 0
vn -0.3335269093513489 -0.9427405595779419 0
vn 0.1081303656101227 -0.9941367506980896 0
vn 0.5599743723869324 -0.8285099267959595 0
vn 0.8760673999786377 -0.4821887314319611 0
vn 1 2.97616355083468e-016 0
vn 0 0 1
vn 0 0 1
vn 0 0 1
vn -1.606449435101881e-017 0 1
vn 0 0 1
vn 0 0 1
vn 0 -1.440348424814906e-017 1
vn 0 0 1
vn 0 0 1
vn 0 0 1
vn 0 0 1
vn 0 0 1
vn 0 0 1
vn 0 0 -1
vn 0 0 -1
vn 0 0 -1
vn 0 0 -1
vn 0 0 -1
vn 0 0 -1
vn 0 0 -1
vn 0 0 -1
vn 0 0 -1
vn 0 0 -1
vn 0 0 -1
vn 0 0 -1
vn 0 0 -1
f 15/15/15 2/2/2 16/16/16
f 16/16/16 3/3/3 17/17/17
f 17/17/17 4/4/4 18/18/18
f 18/18/18 5/5/5 19/19/19
f 19/19/19 6/6/6 20/20/20
f 20/20/20 7/7/7 21/21/21
f 21/21/21 8/8/8 22/22/22
f 22/22/22 9/9/9 23/23/23
f 23/23/23 10/10/10 24/24/24
f 24/24/24 11/11/11 25/25/25
f 25/25/25 12/12/12 26/26/26
f 26/26/26 13/13/13 27/27/27
f 27/27/27 14/14/14 28/28/28
f 14/14/14 27/27/27 13/13/13
f 13/13/13 26/26/26 12/12/12
f 12/12/12 25/25/25 11/11/11
f 11/11/11 24/24/24 10/10/10
f 10/10/10 23/23/23 9/9/9
f 9/9/9 22/22/22 8/8/8
f 8/8/8 21/21/21 7/7/7
f 7/7/7 20/20/20 6/6/6
f 6/6/6 19/19/19 5/5/5
f 5/5/5 18/18/18 4/4/4
f 4/4/4 17/17/17 3/3/3
f 3/3/3 16/16/16 2/2/2
f 2/2/2 15/15/15 1/1/1
f 29/29/29 32/32/32 30/30/30
f 30/30/30 32/32/32 31/31/31
f 32/32/32 29/29/29 33/33/33
f 33/33/33 35/35/35 34/34/34
f 35/35/35 37/37/37 36/36/36
f 37/37/37 40/40/40 38/38/38
f 38/38/38 40/40/40 39/39/39
f 40/40/40 29/29/29 41/41/41
f 29/29/29 40/40/40 33/33/33
f 33/33/33 37/37/37 35/35/35
f 37/37/37 33/33/33 40/40/40
f 42/42/42 43/43/43 45/45/45
f 43/43/43 44/44/44 45/45/45
f 45/45/45 46/46/46 42/42/42
f 46/46/46 47/47/47 48/48/48
f 48/48/48 49/49/49 50/50/50
f 50/50/50 51/51/51 53/53/53
f 51/51/51 52/52/52 53/53/53
f 53/53/53 54/54/54 42/42/42
f 42/42/42 46/46/46 53/53/53
f 46/46/46 48/48/48 50/50/50
f 50/50/50 53/53/53 46/46/46
