# Rhino
mtllib minutehand.mtl
g Default object_1
usemtl material1
v 1 0 2
v 0.7255287766456604 5.513471126556397 2
v 0 11 2
v 1 0 1
v 0.7255287766456604 5.513471126556397 1
v 0 11 1
v 0.9313821792602539 2.688117742538452 1
v 0.7255287766456604 5.513471126556397 1.5
v 0.9313821792602539 2.688117742538452 1.5
v 0.4194321930408478 8.200067520141602 1
v 0.4194321930408478 8.200067520141602 1.5
v 0 11 2
v -0.5238999724388123 7.376100063323975 2
v -0.8516388535499573 4.000129222869873 2
v -0.997360110282898 0.5164382457733154 2
v 1 0 2
v 0 11 1
v -0.5238999724388123 7.376100063323975 1
v -0.8516388535499573 4.000129222869873 1
v -0.997360110282898 0.5164382457733154 1
v 1 0 1
v -0.02384824305772781 -0.9997155666351318 1
v -0.02384824305772781 -0.9997155666351318 2
v -0.997360110282898 0.5164382457733154 1.5
v -0.02384824305772781 -0.9997155666351318 1.5
v 0.6972078084945679 -0.716869056224823 1
v 0.6972078084945679 -0.716869056224823 1.5
v -0.02384824305772781 -0.9997155666351318 1.25
v 0.6972078084945679 -0.716869056224823 1.25
v 0.6972078084945679 -0.716869056224823 2
v -0.02384824305772781 -0.9997155666351318 1.75
v 0.6972078084945679 -0.716869056224823 1.75
v -0.7359724640846252 -0.6770114898681641 1.5
v -0.7359724640846252 -0.6770114898681641 2
v -0.997360110282898 0.5164382457733154 1.75
v -0.7359724640846252 -0.6770114898681641 1.75
v -0.9523545503616333 2.230428695678711 1
v -0.9523545503616333 2.230428695678711 2
v -0.8516388535499573 4.000129222869873 1.5
v -0.9523545503616333 2.230428695678711 1.5
v -0.7359724640846252 -0.6770114898681641 1
v -0.997360110282898 0.5164382457733154 1.25
v -0.7359724640846252 -0.6770114898681641 1.25
v 0 11 2
v 0.7255287766456604 5.513471126556397 2
v 1 0 2
v 0.6972078084945679 -0.716869056224823 2
v -0.02384824305772781 -0.9997155666351318 2
v -0.7359724640846252 -0.6770114898681641 2
v -0.997360110282898 0.5164382457733154 2
v -0.9523545503616333 2.230428695678711 2
v -0.8516388535499573 4.000129222869873 2
v -0.5238999724388123 7.376100063323975 2
v 0 5 2
v 0 2 2
v 0.5 2 2
v -0.5 5 2
v -0.5 2 2
vt 0.5 0
vt 0.5 0.5231325626373291
vt 0.5 0.99853515625
vt 0.590301513671875 0
vt 0.590301513671875 0.5231325626373291
vt 0.590301513671875 0.99853515625
vt 0.590301513671875 0.2615662813186646
vt 0.5451507568359375 0.5231325626373291
vt 0.5451507568359375 0.2615662813186646
vt 0.590301513671875 0.7608338594436646
vt 0.5451507568359375 0.7608338594436646
vt 0.75 0
vt 0.75 0.07621528208255768
vt 0.75 0.1511578261852264
vt 0.75 0.2332237362861633
vt 0.75 0.99853515625
vt 0.8203220963478088 0
vt 0.8203220963478088 0.07621528208255768
vt 0.8203220963478088 0.1511578261852264
vt 0.8203220963478088 0.2332237362861633
vt 0.8203220963478088 0.99853515625
vt 0.8203220963478088 0.6158794164657593
vt 0.75 0.6158794164657593
vt 0.785161018371582 0.2332237362861633
vt 0.785161018371582 0.6158794164657593
vt 0.8203220963478088 0.8072072863578796
vt 0.785161018371582 0.8072072863578796
vt 0.8027415275573731 0.6158794164657593
vt 0.8027415275573731 0.8072072863578796
vt 0.75 0.8072072863578796
vt 0.767580509185791 0.6158794164657593
vt 0.767580509185791 0.8072072863578796
vt 0.785161018371582 0.4245515763759613
vt 0.75 0.4245515763759613
vt 0.767580509185791 0.2332237362861633
vt 0.767580509185791 0.4245515763759613
vt 0.8203220963478088 0.1921907663345337
vt 0.75 0.1921907663345337
vt 0.785161018371582 0.1511578261852264
vt 0.785161018371582 0.1921907663345337
vt 0.8203220963478088 0.4245515763759613
vt 0.8027415275573731 0.2332237362861633
vt 0.8027415275573731 0.4245515763759613
vt 0.0832112655043602 0.99853515625
vt 0.02283909171819687 0.5419941544532776
vt 0 0.0832112655043602
vt 0.02519572153687477 0.02355968207120895
vt 0.08519570529460907 2.366609805903863e-005
vt 0.1444524675607681 0.02687628380954266
vt 0.1662028580904007 0.1261847317218781
vt 0.1624578833580017 0.2688080370426178
vt 0.1540772020816803 0.4160670638084412
vt 0.1268056482076645 0.6969859004020691
vt 0.0832112655043602 0.499267578125
vt 0.0832112655043602 0.2496337890625
vt 0.0416056327521801 0.2496337890625
vt 0.12481689453125 0.499267578125
vt 0.12481689453125 0.2496337890625
vn 1 0 0
vn 0.9955325722694397 0.0944187119603157 0
vn 0.986393928527832 0.1643989831209183 0
vn 1 0 0
vn 0.9955325722694397 0.0944187119603157 0
vn 0.986393928527832 0.1643989831209183 0
vn 0.9987632036209106 0.04972035437822342 -1.837931628185661e-017
vn 0.9955325722694397 0.0944187119603157 1.372956283230924e-017
vn 0.9987632036209106 0.04972035437822342 -1.837931628185661e-017
vn 0.9913695454597473 0.1310969442129135 1.655138377835161e-016
vn 0.9913695454597473 0.1310969442129135 1.655138377835161e-016
vn -0.986393928527832 0.1643989831209183 0
vn -0.9927274584770203 0.1203834712505341 0
vn -0.9974518418312073 0.07134311646223068 0
vn -0.999948263168335 0.01017091982066631 0
vn 1 0 0
vn -0.986393928527832 0.1643989831209183 0
vn -0.9927274584770203 0.1203834712505341 0
vn -0.9974518418312073 0.07134311646223068 0
vn -0.999948263168335 0.01017091982066631 0
vn 1 0 0
vn -0.02384824305772781 -0.9997155666351318 0
vn -0.02384824305772781 -0.9997155666351318 0
vn -0.999948263168335 0.01017091982066631 5.645994683260055e-019
vn -0.02384824305772781 -0.9997155666351318 0
vn 0.6972078084945679 -0.716869056224823 -4.661958499485587e-017
vn 0.6972078084945679 -0.716869056224823 -4.661958499485587e-017
vn -0.02384824305772781 -0.9997155666351318 0
vn 0.6972078084945679 -0.716869056224823 -4.661958499485587e-017
vn 0.6972078084945679 -0.716869056224823 -4.661958499485587e-017
vn -0.02384824305772781 -0.9997155666351318 0
vn 0.6972078084945679 -0.716869056224823 -4.661958499485587e-017
vn -0.7359724640846252 -0.6770114898681641 -1.911883725617494e-016
vn -0.7359724640846252 -0.6770114898681641 -1.911883725617494e-016
vn -0.999948263168335 0.01017091982066631 5.645994683260055e-019
vn -0.7359724640846252 -0.6770114898681641 -1.911883725617494e-016
vn -0.9991263151168823 0.04179301857948303 0
vn -0.9991263151168823 0.04179301857948303 0
vn -0.9974518418312073 0.07134311646223068 -3.168270821795302e-017
vn -0.9991263151168823 0.04179301857948303 0
vn -0.7359724640846252 -0.6770114898681641 -1.911883725617494e-016
vn -0.999948263168335 0.01017091982066631 5.645994683260055e-019
vn -0.7359724640846252 -0.6770114898681641 -1.911883725617494e-016
vn 0 0 1
vn 0 0 1
vn 0 0 1
vn 0 0 1
vn 0 0 1
vn 0 0 1
vn 0 0 1
vn 0 0 1
vn 0 0 1
vn 0 0 1
vn 0 0 1
vn 0 0 1
vn 0 0 1
vn 0 -6.938893903907228e-018 1
vn 0 -6.938893903907228e-018 1
f 5/5/5 8/8/8 9/9/9 7/7/7
f 10/10/10 11/11/11 8/8/8 5/5/5
f 1/1/1 4/4/4 9/9/9
f 3/3/3 2/2/2 11/11/11
f 2/2/2 1/1/1 9/9/9
f 6/6/6 3/3/3 11/11/11
f 4/4/4 7/7/7 9/9/9
f 10/10/10 6/6/6 11/11/11
f 9/9/9 8/8/8 2/2/2
f 8/8/8 11/11/11 2/2/2
f 42/42/42 24/24/24 40/40/40
f 37/37/37 20/20/20 42/42/42
f 40/40/40 37/37/37 42/42/42
f 37/37/37 40/40/40 39/39/39 19/19/19
f 29/29/29 27/27/27 25/25/25 28/28/28
f 26/26/26 29/29/29 28/28/28 22/22/22
f 27/27/27 32/32/32 31/31/31 25/25/25
f 25/25/25 31/31/31 36/36/36 33/33/33
f 33/33/33 36/36/36 35/35/35 24/24/24
f 22/22/22 28/28/28 43/43/43 41/41/41
f 28/28/28 25/25/25 33/33/33 43/43/43
f 43/43/43 33/33/33 24/24/24 42/42/42
f 41/41/41 43/43/43 42/42/42 20/20/20
f 21/21/21 16/16/16 27/27/27
f 12/12/12 17/17/17 18/18/18
f 16/16/16 30/30/30 32/32/32
f 30/30/30 23/23/23 31/31/31
f 23/23/23 34/34/34 36/36/36
f 34/34/34 15/15/15 35/35/35
f 15/15/15 38/38/38 35/35/35
f 38/38/38 14/14/14 35/35/35
f 14/14/14 13/13/13 39/39/39
f 13/13/13 12/12/12 39/39/39
f 18/18/18 19/19/19 39/39/39
f 26/26/26 21/21/21 29/29/29
f 40/40/40 24/24/24 35/35/35
f 39/39/39 40/40/40 35/35/35
f 27/27/27 29/29/29 21/21/21
f 32/32/32 27/27/27 16/16/16
f 31/31/31 32/32/32 30/30/30
f 36/36/36 31/31/31 23/23/23
f 35/35/35 36/36/36 34/34/34
f 12/12/12 18/18/18 39/39/39
f 35/35/35 14/14/14 39/39/39
f 56/56/56 54/54/54 55/55/55
f 54/54/54 57/57/57 58/58/58 55/55/55
f 44/44/44 53/53/53 45/45/45
f 45/45/45 56/56/56 46/46/46
f 46/46/46 56/56/56 47/47/47
f 47/47/47 55/55/55 48/48/48
f 48/48/48 50/50/50 49/49/49
f 50/50/50 58/58/58 51/51/51
f 51/51/51 58/58/58 52/52/52
f 52/52/52 57/57/57 53/53/53
f 55/55/55 47/47/47 56/56/56
f 56/56/56 45/45/45 54/54/54
f 58/58/58 48/48/48 55/55/55
f 57/57/57 52/52/52 58/58/58
f 54/54/54 45/45/45 57/57/57
f 53/53/53 57/57/57 45/45/45
f 48/48/48 58/58/58 50/50/50
