# Rhino
mtllib secondhand.mtl
g Default object_1
usemtl material1
v 0 12 3.406169652938843
v -0.1660783737897873 9.673267364501953 3.406169652938843
v -0.3137057721614838 7.329572677612305 3.406169652938843
v -0.4430757761001587 4.87830924987793 3.406169652938843
v -0.5332687497138977 2.667019367218018 3.406169652938843
v -0.5961290597915649 0.2460474222898483 3.406169652938843
v 0.5971150398254395 0.1868688017129898 3.406169652938843
v 0.5333890318870544 2.663509368896484 3.406169652938843
v 0.4435361921787262 4.868481159210205 3.406169652938843
v 0.3166998326778412 7.278124809265137 3.406169652938843
v 0.17017562687397 9.612396240234375 3.406169652938843
v 0 12 3.406169652938843
v 0 12 3.005475759506226
v -0.1660783737897873 9.673267364501953 3.005475759506226
v -0.3137057721614838 7.329572677612305 3.005475759506226
v -0.4430757761001587 4.87830924987793 3.005475759506226
v -0.5332687497138977 2.667019367218018 3.005475759506226
v -0.5961290597915649 0.2460474222898483 3.005475759506226
v 0.5971150398254395 0.1868688017129898 3.005475759506226
v 0.5333890318870544 2.663509368896484 3.005475759506226
v 0.4435361921787262 4.868481159210205 3.005475759506226
v 0.3166998326778412 7.278124809265137 3.005475759506226
v 0.17017562687397 9.612396240234375 3.005475759506226
v 0 12 3.005475759506226
v -0.002710382919758558 -0.6000321507453919 3.005475759506226
v 0.5971150398254395 0.1868688017129898 3.205822706222534
v -0.002710382919758558 -0.6000321507453919 3.406169652938843
v -0.5961290597915649 0.2460474222898483 3.205822706222534
v -0.002710382919758558 -0.6000321507453919 3.205822706222534
v 0.4302447438240051 -0.4182527959346771 3.005475759506226
v 0.5971150398254395 0.1868688017129898 3.10564923286438
v 0.4302447438240051 -0.4182527959346771 3.205822706222534
v -0.002710382919758558 -0.6000321507453919 3.10564923286438
v 0.4302447438240051 -0.4182527959346771 3.10564923286438
v 0.5714681744575501 1.397772908210754 3.005475759506226
v 0.5714681744575501 1.397772908210754 3.406169652938843
v 0.5971150398254395 0.1868688017129898 3.305996179580689
v 0.4302447438240051 -0.4182527959346771 3.406169652938843
v -0.002710382919758558 -0.6000321507453919 3.305996179580689
v 0.4302447438240051 -0.4182527959346771 3.305996179580689
v -0.434642881155014 -0.4136804640293121 3.205822706222534
v -0.434642881155014 -0.4136804640293121 3.406169652938843
v -0.5961290597915649 0.2460474222898483 3.305996179580689
v -0.434642881155014 -0.4136804640293121 3.305996179580689
v -0.5706249475479126 1.430396914482117 3.005475759506226
v -0.5706249475479126 1.430396914482117 3.406169652938843
v -0.434642881155014 -0.4136804640293121 3.005475759506226
v -0.5961290597915649 0.2460474222898483 3.10564923286438
v -0.434642881155014 -0.4136804640293121 3.10564923286438
v 0 12 3.005475759506226
v 0.17017562687397 9.612396240234375 3.005475759506226
v 0.3166998326778412 7.278124809265137 3.005475759506226
v 0.4435361921787262 4.868481159210205 3.005475759506226
v 0.5333890318870544 2.663509368896484 3.005475759506226
v 0.5714681744575501 1.397772908210754 3.005475759506226
v 0.5971150398254395 0.1868688017129898 3.005475759506226
v 0.4302447438240051 -0.4182527959346771 3.005475759506226
v -0.002710382919758558 -0.6000321507453919 3.005475759506226
v -0.434642881155014 -0.4136804640293121 3.005475759506226
v -0.5961290597915649 0.2460474222898483 3.005475759506226
v -0.5706249475479126 1.430396914482117 3.005475759506226
v -0.5332687497138977 2.667019367218018 3.005475759506226
v -0.4430757761001587 4.87830924987793 3.005475759506226
v -0.3137057721614838 7.329572677612305 3.005475759506226
v -0.1660783737897873 9.673267364501953 3.005475759506226
v 0 2.549971342086792 3.005475759506226
v 0.3000191450119019 2.549971342086792 3.005475759506226
v 0 0.9749664664268494 3.005475759506226
v 0.3000191450119019 0.9749664664268494 3.005475759506226
v -0.3000191450119019 2.549971342086792 3.005475759506226
v -0.3000191450119019 0.9749664664268494 3.005475759506226
v 0 12 3.406169652938843
v 0.17017562687397 9.612396240234375 3.406169652938843
v 0.3166998326778412 7.278124809265137 3.406169652938843
v 0.4435361921787262 4.868481159210205 3.406169652938843
v 0.5333890318870544 2.663509368896484 3.406169652938843
v 0.5714681744575501 1.397772908210754 3.406169652938843
v 0.5971150398254395 0.1868688017129898 3.406169652938843
v 0.4302447438240051 -0.4182527959346771 3.406169652938843
v -0.002710382919758558 -0.6000321507453919 3.406169652938843
v -0.434642881155014 -0.4136804640293121 3.406169652938843
v -0.5961290597915649 0.2460474222898483 3.406169652938843
v -0.5706249475479126 1.430396914482117 3.406169652938843
v -0.5332687497138977 2.667019367218018 3.406169652938843
v -0.4430757761001587 4.87830924987793 3.406169652938843
v -0.3137057721614838 7.329572677612305 3.406169652938843
v -0.1660783737897873 9.673267364501953 3.406169652938843
v 0 2.549971342086792 3.406169652938843
v 0.3000191450119019 2.549971342086792 3.406169652938843
v 0 0.9749664664268494 3.406169652938843
v 0.3000191450119019 0.9749664664268494 3.406169652938843
v -0.3000191450119019 2.549971342086792 3.406169652938843
v -0.3000191450119019 0.9749664664268494 3.406169652938843
vt 0.4284691512584686 0
vt 0.4284691512584686 0.04435590654611588
vt 0.4284691512584686 0.0914478674530983
vt 0.4284691512584686 0.1437730193138123
vt 0.4284691512584686 0.194228932261467
vt 0.4284691512584686 0.2538727223873138
vt 0.4284691512584686 0.7431369423866272
vt 0.4284691512584686 0.8042232990264893
vt 0.4284691512584686 0.8545452356338501
vt 0.4284691512584686 0.9060233235359192
vt 0.4284691512584686 0.9529884457588196
vt 0.4284691512584686 0.99853515625
vt 0.4439062178134918 0
vt 0.4439062178134918 0.04435590654611588
vt 0.4439062178134918 0.0914478674530983
vt 0.4439062178134918 0.1437730193138123
vt 0.4439062178134918 0.194228932261467
vt 0.4439062178134918 0.2538727223873138
vt 0.4439062178134918 0.7431369423866272
vt 0.4439062178134918 0.8042232990264893
vt 0.4439062178134918 0.8545452356338501
vt 0.4439062178134918 0.9060233235359192
vt 0.4439062178134918 0.9529884457588196
vt 0.4439062178134918 0.99853515625
vt 0.4439062178134918 0.4985048472881317
vt 0.4361876845359802 0.7431369423866272
vt 0.4284691512584686 0.4985048472881317
vt 0.4361876845359802 0.2538727223873138
vt 0.4361876845359802 0.4985048472881317
vt 0.4439062178134918 0.6208208799362183
vt 0.4400469660758972 0.7431369423866272
vt 0.4361876845359802 0.6208208799362183
vt 0.4400469660758972 0.4985048472881317
vt 0.4400469660758972 0.6208208799362183
vt 0.4439062178134918 0.7736800909042358
vt 0.4284691512584686 0.7736800909042358
vt 0.4323284327983856 0.7431369423866272
vt 0.4284691512584686 0.6208208799362183
vt 0.4323284327983856 0.4985048472881317
vt 0.4323284327983856 0.6208208799362183
vt 0.4361876845359802 0.3761887550354004
vt 0.4284691512584686 0.3761887550354004
vt 0.4323284327983856 0.2538727223873138
vt 0.4323284327983856 0.3761887550354004
vt 0.4439062178134918 0.224050834774971
vt 0.4284691512584686 0.224050834774971
vt 0.4439062178134918 0.3761887550354004
vt 0.4400469660758972 0.2538727223873138
vt 0.4400469660758972 0.3761887550354004
vt 0.04755218327045441 0.99853515625
vt 0.03406600654125214 0.8093209266662598
vt 0.02245417051017284 0.6243332624435425
vt 0.01240257360041142 0.433372437953949
vt 0.005281860940158367 0.2586315274238586
vt 0.002264142967760563 0.1583237051963806
vt 0.0002316612080903724 0.06236127391457558
vt 0.01345589570701122 0.01440624240785837
vt 0.04776697605848312 4.851164590036206e-007
vt 0.08199701458215714 0.01476859487593174
vt 0.09479456394910812 0.06705109030008316
vt 0.09277340024709702 0.160909116268158
vt 0.08981297910213471 0.258909672498703
vt 0.08266530930995941 0.4341512620449066
vt 0.07241292297840118 0.6284103989601135
vt 0.06071365997195244 0.8141448497772217
vt 0.04755218327045441 0.2496337890625
vt 0.0237760916352272 0.2496337890625
vt 0.04755218327045441 0.12481689453125
vt 0.0237760916352272 0.12481689453125
vt 0.07132827490568161 0.2496337890625
vt 0.07132827490568161 0.12481689453125
vt 0.619083046913147 0.99853515625
vt 0.6055968403816223 0.8093209266662598
vt 0.5939850211143494 0.6243332624435425
vt 0.583933413028717 0.433372437953949
vt 0.5768126845359802 0.2586315274238586
vt 0.573794960975647 0.1583237051963806
vt 0.5717625021934509 0.06236127391457558
vt 0.5849867463111877 0.01440624240785837
vt 0.6192978024482727 4.851164590036206e-007
vt 0.6535278558731079 0.01476859487593174
vt 0.6663253903388977 0.06705109030008316
vt 0.664304256439209 0.160909116268158
vt 0.6613438129425049 0.258909672498703
vt 0.6541961431503296 0.4341512620449066
vt 0.6439437866210938 0.6284103989601135
vt 0.6322445273399353 0.8141448497772217
vt 0.619083046913147 0.2496337890625
vt 0.595306932926178 0.2496337890625
vt 0.619083046913147 0.12481689453125
vt 0.595306932926178 0.12481689453125
vt 0.6428591012954712 0.2496337890625
vt 0.6428591012954712 0.12481689453125
vn -0.9971885085105896 0.07493410259485245 0
vn -0.9977350234985352 0.06726665794849396 0
vn -0.998304545879364 0.05820668861269951 0
vn -0.9989032745361328 0.04682151228189468 0
vn -0.9994130730628967 0.03425576165318489 0
vn -0.9998571872711182 0.01690133661031723 0
vn 0.9998652338981628 0.01641598530113697 0
vn 0.9994138479232788 0.03423365205526352 0
vn 0.9989056587219238 0.04677104949951172 0
vn 0.9983171820640564 0.05798980966210365 0
vn 0.9977496266365051 0.06704983860254288 0
vn 0.9971885085105896 0.07493410259485245 0
vn -0.9971885085105896 0.07493410259485245 0
vn -0.9977350234985352 0.06726665794849396 0
vn -0.998304545879364 0.05820668861269951 0
vn -0.9989032745361328 0.04682151228189468 0
vn -0.9994130730628967 0.03425576165318489 0
vn -0.9998571872711182 0.01690133661031723 0
vn 0.9998652338981628 0.01641598530113697 0
vn 0.9994138479232788 0.03423365205526352 0
vn 0.9989056587219238 0.04677104949951172 0
vn 0.9983171820640564 0.05798980966210365 0
vn 0.9977496266365051 0.06704983860254288 0
vn 0.9971885085105896 0.07493410259485245 0
vn -0.004517016466706991 -0.9999898076057434 2.669679766645084e-016
vn 0.9998652338981628 0.01641598530113697 8.543080338289287e-017
vn -0.004517016466706991 -0.9999898076057434 2.669679766645084e-016
vn -0.9998571872711182 0.01690133661031723 2.665434278694768e-016
vn -0.004517016466706991 -0.9999898076057434 2.669679766645084e-016
vn 0.7170288562774658 -0.6970435380935669 -1.24673416312711e-016
vn 0.9998652338981628 0.01641598530113697 8.543080338289287e-017
vn 0.7170288562774658 -0.6970435380935669 -1.24673416312711e-016
vn -0.004517016466706991 -0.9999898076057434 2.669679766645084e-016
vn 0.7170288562774658 -0.6970435380935669 -1.24673416312711e-016
vn 0.9996691346168518 0.0257223229855299 8.576849159616152e-017
vn 0.9996691346168518 0.0257223229855299 8.576849159616152e-017
vn 0.9998652338981628 0.01641598530113697 8.543080338289287e-017
vn 0.7170288562774658 -0.6970435380935669 -1.24673416312711e-016
vn -0.004517016466706991 -0.9999898076057434 2.669679766645084e-016
vn 0.7170288562774658 -0.6970435380935669 -1.24673416312711e-016
vn -0.7243585586547852 -0.6894234418869019 -2.341065129126102e-016
vn -0.7243585586547852 -0.6894234418869019 -2.341065129126102e-016
vn -0.9998571872711182 0.01690133661031723 2.665434278694768e-016
vn -0.7243585586547852 -0.6894234418869019 -2.341065129126102e-016
vn -0.9996630549430847 0.0259561613202095 0
vn -0.9996630549430847 0.0259561613202095 0
vn -0.7243585586547852 -0.6894234418869019 -2.341065129126102e-016
vn -0.9998571872711182 0.01690133661031723 2.665434278694768e-016
vn -0.7243585586547852 -0.6894234418869019 -2.341065129126102e-016
vn 0 0 -1
vn 0 0 -1
vn -5.461352043644927e-032 -5.636963897563476e-017 -1
vn 0 -6.22713344181842e-017 -1
vn 0 0 -1
vn 3.790753283324568e-016 4.188640789899069e-017 -1
vn -3.709543205413174e-016 0 -1
vn 0 -7.152201284571993e-017 -1
vn 0 0 -1
vn 1.919302176629514e-033 3.577417844693426e-017 -1
vn 0 3.778211637051488e-017 -1
vn 0 0 -1
vn 0 9.516556775722933e-017 -1
vn 0 0 -1
vn 0 0 -1
vn 0 0 -1
vn 0 0 -1
vn 0 0 -1
vn 0 0 -1
vn 0 0 -1
vn 0 6.938893903907228e-018 -1
vn 0 6.938893903907228e-018 -1
vn 0 0 1
vn 0 0 1
vn 0 0 1
vn 0 0 1
vn 0 0 1
vn 0 0 1
vn 0 0 1
vn 0 0 1
vn 0 3.524508394864329e-017 1
vn -1.919302176629514e-033 -3.577417844693426e-017 1
vn 0 -3.778211637051488e-017 1
vn 0 0 1
vn 3.918525027044327e-016 0 1
vn 0 0 1
vn 0 0 1
vn 0 0 1
vn 0 0 1
vn 0 0 1
vn 0 0 1
vn 0 0 1
vn 0 -1.387778780781446e-017 1
vn 0 -1.387778780781446e-017 1
f 31/31/31 26/26/26 32/32/32 34/34/34
f 34/34/34 32/32/32 29/29/29 33/33/33
f 26/26/26 37/37/37 40/40/40 32/32/32
f 32/32/32 40/40/40 39/39/39 29/29/29
f 29/29/29 39/39/39 44/44/44 41/41/41
f 41/41/41 44/44/44 43/43/43 28/28/28
f 33/33/33 29/29/29 41/41/41 49/49/49
f 49/49/49 41/41/41 28/28/28 48/48/48
f 13/13/13 14/14/14 2/2/2
f 14/14/14 15/15/15 3/3/3
f 15/15/15 16/16/16 4/4/4
f 16/16/16 17/17/17 5/5/5
f 17/17/17 45/45/45 28/28/28
f 45/45/45 18/18/18 48/48/48
f 18/18/18 47/47/47 49/49/49
f 47/47/47 25/25/25 33/33/33
f 25/25/25 30/30/30 33/33/33
f 30/30/30 19/19/19 34/34/34
f 19/19/19 35/35/35 31/31/31
f 35/35/35 20/20/20 26/26/26
f 20/20/20 21/21/21 9/9/9
f 21/21/21 22/22/22 9/9/9
f 22/22/22 23/23/23 11/11/11
f 23/23/23 24/24/24 12/12/12
f 12/12/12 11/11/11 23/23/23
f 11/11/11 10/10/10 22/22/22
f 10/10/10 9/9/9 22/22/22
f 9/9/9 8/8/8 20/20/20
f 8/8/8 36/36/36 20/20/20
f 36/36/36 7/7/7 37/37/37
f 7/7/7 38/38/38 40/40/40
f 38/38/38 27/27/27 40/40/40
f 27/27/27 42/42/42 44/44/44
f 42/42/42 6/6/6 43/43/43
f 6/6/6 46/46/46 43/43/43
f 46/46/46 5/5/5 28/28/28
f 5/5/5 4/4/4 16/16/16
f 4/4/4 3/3/3 15/15/15
f 3/3/3 2/2/2 14/14/14
f 2/2/2 1/1/1 13/13/13
f 26/26/26 31/31/31 35/35/35
f 31/31/31 34/34/34 19/19/19
f 34/34/34 33/33/33 30/30/30
f 37/37/37 26/26/26 36/36/36
f 40/40/40 37/37/37 7/7/7
f 39/39/39 40/40/40 27/27/27
f 44/44/44 39/39/39 27/27/27
f 43/43/43 44/44/44 42/42/42
f 28/28/28 43/43/43 46/46/46
f 33/33/33 49/49/49 47/47/47
f 48/48/48 28/28/28 45/45/45
f 49/49/49 48/48/48 18/18/18
f 5/5/5 17/17/17 28/28/28
f 26/26/26 20/20/20 36/36/36
f 67/67/67 69/69/69 68/68/68 66/66/66
f 66/66/66 68/68/68 71/71/71 70/70/70
f 50/50/50 51/51/51 65/65/65
f 51/51/51 52/52/52 64/64/64
f 52/52/52 53/53/53 63/63/63
f 53/53/53 54/54/54 66/66/66
f 54/54/54 55/55/55 67/67/67
f 55/55/55 56/56/56 69/69/69
f 56/56/56 57/57/57 69/69/69
f 57/57/57 58/58/58 68/68/68
f 58/58/58 59/59/59 60/60/60
f 60/60/60 61/61/61 71/71/71
f 61/61/61 62/62/62 70/70/70
f 62/62/62 63/63/63 66/66/66
f 63/63/63 64/64/64 52/52/52
f 64/64/64 65/65/65 51/51/51
f 69/69/69 67/67/67 55/55/55
f 68/68/68 69/69/69 57/57/57
f 67/67/67 66/66/66 54/54/54
f 71/71/71 68/68/68 58/58/58
f 70/70/70 71/71/71 61/61/61
f 66/66/66 70/70/70 62/62/62
f 63/63/63 53/53/53 66/66/66
f 58/58/58 60/60/60 71/71/71
f 89/89/89 88/88/88 90/90/90 91/91/91
f 88/88/88 92/92/92 93/93/93 90/90/90
f 72/72/72 87/87/87 73/73/73
f 73/73/73 86/86/86 74/74/74
f 74/74/74 85/85/85 75/75/75
f 75/75/75 88/88/88 76/76/76
f 76/76/76 89/89/89 77/77/77
f 77/77/77 91/91/91 78/78/78
f 78/78/78 91/91/91 79/79/79
f 79/79/79 90/90/90 80/80/80
f 80/80/80 82/82/82 81/81/81
f 82/82/82 93/93/93 83/83/83
f 83/83/83 92/92/92 84/84/84
f 84/84/84 88/88/88 85/85/85
f 85/85/85 74/74/74 86/86/86
f 86/86/86 73/73/73 87/87/87
f 91/91/91 77/77/77 89/89/89
f 90/90/90 79/79/79 91/91/91
f 89/89/89 76/76/76 88/88/88
f 93/93/93 80/80/80 90/90/90
f 92/92/92 83/83/83 93/93/93
f 88/88/88 84/84/84 92/92/92
f 85/85/85 88/88/88 75/75/75
f 80/80/80 93/93/93 82/82/82
